<svg width="35" height="36" viewBox="0 0 35 36" fill="none" xmlns="http://www.w3.org/2000/svg">
<path d="M34 18.1683C34 27.3712 26.6127 34.8317 17.5 34.8317C8.3873 34.8317 1 27.3712 1 18.1683C1 8.96539 8.3873 1.50495 17.5 1.50495C26.6127 1.50495 34 8.96539 34 18.1683Z" fill="#FFBC1F"/>
<path d="M21.4167 23.9752L21.1667 23.7228L16.0833 24.8168L13.1667 25.4901L12.8333 25.5743L12.6667 25.7426L12.5 26.2475L12.6667 27.9307V29.0248L12.9167 30.6238L13.1667 31.0446L14.9167 31.7178L19.4167 31.2129L19.6667 31.5495L20.75 31.4653L23.8333 30.6238L23.4167 27.9307L23 25.1535L22.9167 24.6485L22.8333 24.5644L22.75 24.6485L21.4167 24.2277V23.9752Z" fill="#EB4F11"/>
<path d="M15.0833 25.5743L21.5 24.3119L22.1667 24.2277L22.5833 24.396L22.75 24.4802L22.6667 24.5644L21.9167 24.7327L19 25.4901L14.3333 26.5L13.5833 26.3317L13.4167 26.0792L15.0833 25.5743Z" fill="#FEF7EA"/>
<path d="M13.25 33.5693L13.3333 33.3168L13.25 33.2327L13.1667 33.0644L13.0833 32.8119L13 32.5594L13.0833 32.3069L13.1667 32.2228L13 32.0545L12.8333 31.802L12.75 31.5495V31.2129L12.8333 31.0446H13H13.0833L14.0833 31.297L15.75 31.3812L16.6667 31.297L17.0833 31.1287L17.1667 31.0446L16.9167 30.6238L16.25 29.8663L16 29.5297V29.2772L16.1667 29.0248L16.5 28.9406L17.1667 29.6139L18.1667 30.2871L19.25 31.0446L19.6667 31.5495H20.1667L24.6667 30.4554L24.8333 30.203L24.5 29.4455L24.4167 29.1931L25.25 28.5198L26.5833 28.0149L28 27.8465V27.9307L28.1667 28.3515L28.5833 29.698L28.75 30.4554L28.8333 31.4653L28.6667 32.3069L28.25 32.8119L28 32.9802L27.9167 33.1485L27.6667 33.2327L26.5 33.7376L24.25 34.1584L21.5833 34.4109L20.3333 34.3267L19.4167 34.495L18.1667 34.9158L17 35L15.3333 34.7475L14.75 34.5792L13.8333 34.1584L13.5833 34.0743L13.25 33.5693Z" fill="#FFBD89"/>
<path d="M16.1667 21.3663V22.2079L16.5 22.7129L16.8333 22.9653L17.3333 23.1337L18.0833 23.2178L19.0833 23.1337L20.1667 22.7129L20.5833 22.2921L20.9167 21.8713L21.0833 21.3663V21.1139L20.9167 19.9356L21 19.6832L21.1667 19.5149L22.8333 18.6733L24 17.6634L24.75 16.8218L25.0833 16.3168L25.4167 16.401H25.75L26.1667 16.3168L26.5 16.1485L27.0833 15.896L27.5 15.3069L27.8333 14.8861L28.0833 14.297L28.25 13.6238V12.9505L27.9167 12.1931L27.6667 11.9406L27.3333 11.7723H26.9167L26.4167 11.8564L25.9167 12.1089L25.5 12.698L25.3333 12.8663L24.8333 11.3515L24.75 9.66832V9.58416L23.5 9.07921L22.5 8.4901L22.0833 8.23762L21.1667 7.39604L20.25 6.38614L19.8333 5.54455L19.5 4.53465L19.3333 3.77723L19.25 3.60891L19.0833 4.11386L18.5 5.0396L18.0833 5.62871L17.25 6.38614L15.9167 7.14356L11.3333 8.99505L11.5 10.8465L11.4167 11.5198L11.3333 11.7723L11.25 11.5198L11.0833 11.3515L10.4167 11.1832L9.91667 11.4356L9.66667 11.7723L9.5 12.2772L9.41667 12.9505L9.58333 13.4554L9.83333 14.1287L10.1667 14.6337L11 15.3069L11.1667 15.5594L11.4167 16.5693L12 17.3267L12.75 18.1683L13.6667 19.0099L15 19.7673L16.3333 20.1881V20.9455L16.1667 21.3663Z" fill="#FFBD89"/>
<path d="M11.4167 11.6881V8.99505L13.0833 8.32178L14.25 7.90099L15.9167 7.05941L17.4167 6.13366L18.3333 5.29208L19.0833 4.11386L19.25 3.69307L19.3333 3.86139L19.5833 4.95545L19.75 5.4604L20.5 6.72277L21.4167 7.64851L22.4167 8.40594L23.25 8.91089L24.25 9.41584L24.75 9.58416L24.6667 9.75247L24.75 10.1733L24.8333 10.9307L25.0833 12.1931L25.3333 12.8663L25.5 12.7822L26.0833 11.9406L26.75 11.7723H27.3333L27.75 11.8564V11.7723L28.25 10.4257L28.3333 9.07921L28 7.31188L27.3333 5.62871L26.1667 4.0297L25.0833 3.0198L24.5 2.59901L23.3333 1.92574L22.6667 1.67327L21.25 1.50495L19.9167 1.67327L19.25 1.33663L17.8333 1.08416L16.3333 1.16832L15.25 1.42079L14 2.0099L13 2.68317L11.5 4.19802L10.4167 5.96535L9.91667 7.4802L9.83333 8.40594V9.33168L10.25 10.6782L10.5 11.1832H10.8333L11.25 11.5198L11.4167 11.6881Z" fill="#985627"/>
<path d="M24.3333 17.3267L24.0833 17.6634L24.5 18.3366L25 18.9257V19.9356L25.25 20.7772L25.6667 21.198L26 21.6188L25.9167 21.7871L26 22.2079L26.1667 22.7129L26.5 23.2178L27 23.5545V23.7228L27.0833 24.1436L27.25 24.4802H27.5V25.4059L27.5833 26.1634L28 27.0049L28.3333 27.5941L28.9167 28.099L29.5 28.4356L30.0833 28.604V27.3416L30.25 26.9208L30.4167 25.8267L30.3333 25.4059L29.5833 24.4802L28.6667 23.8911L28.5833 23.3861L28.25 23.2178V23.0495L28.1667 22.2921L27.75 21.4505L27.5833 21.198L27.6667 21.0297L27.75 20.1881L27.5833 19.5149L27.3333 19.0099L26.8333 18.5049L27.0833 17.2426L27.1667 16.0644L27.0833 15.8119L26.5833 16.1485L26 16.401L25.25 16.3168H25L24.9167 16.4851L24.3333 17.3267Z" fill="#985627"/>
<path d="M8.66667 26.3317L8.75 26.5L9.08333 26.0792L10.1667 24.7327L11.1667 23.6386V23.3861L11 23.0495V22.8812L11.25 22.797L11.6667 22.2079L11.8333 21.5347L11.6667 21.198H11.75L12.25 20.7772L12.5 20.1881L12.5833 19.599L12.5 19.0099L13.0833 18.5049L12.8333 18.2525L12.3333 17.8317L11.75 17.0743L11.5 16.6535L11.3333 16.401L10.9167 17.1584L10.75 17.9158L10.9167 18.5891V18.6733L10.6667 18.9257L10.3333 19.6832V20.1881L10.4167 20.9455L10 21.5347V22.6287L9.58333 22.797L9.5 23.2178V23.4703L9.25 23.6386L8.91667 23.9752L8.66667 24.6485L8.58333 25.5743L8.66667 26.3317Z" fill="#985627"/>
<path d="M10.25 22.797L10.0833 22.6287H9.91667L9.58333 22.797L9.5 23.0495V23.302L9.75 23.5545L10.1667 23.8069H10.75L11 23.7228L11.1667 23.4703L11.0833 23.2178L10.9167 22.9653H10.75L10.25 22.797Z" fill="#DF4824"/>
<path d="M27.1667 23.6386H27V23.9752L27.0833 24.3119L27.25 24.4802H27.5H27.75L28.4167 24.2277L28.6667 23.9752V23.7228L28.5 23.3861L28.25 23.2178H28.1667L27.6667 23.5545L27.1667 23.6386Z" fill="#DF4824"/>
<path d="M13.3768 13.8444C13.7412 14.2451 13.7643 14.8227 13.4282 15.1344C13.0922 15.446 12.5244 15.3739 12.1599 14.9731C11.7955 14.5724 11.7724 13.9949 12.1084 13.6832C12.4444 13.3715 13.0123 13.4437 13.3768 13.8444Z" fill="#FFA476"/>
<path d="M19 20.1915C20.2819 20.2664 21.0163 19.2359 20.9722 20.0066C20 20.3564 19.1986 21.3604 17.9167 21.2855C16.6347 21.2107 16.0799 19.9037 16.4167 20.1073C16.7534 20.3109 17.9167 20.2756 19 20.1915Z" fill="#FFA476"/>
<path d="M23.5 15.4752C23.5 16.033 23.0523 16.4851 22.5 16.4851C21.9477 16.4851 21.5 16.033 21.5 15.4752C21.5 14.9175 21.9477 14.4653 22.5 14.4653C23.0523 14.4653 23.5 14.9175 23.5 15.4752Z" fill="#FFA476"/>
<path d="M26.75 13.7921C26.75 14.3498 26.6642 13.8762 26.25 13.8762C25.8358 13.8762 25.6667 14.3812 25.75 13.9604C25.75 13.4026 26.5833 13.1188 26.75 13.0347C27.1667 12.8663 26.75 13.2343 26.75 13.7921Z" fill="#FFA476"/>
<path d="M11.0959 12.715C10.7252 12.4301 10.895 12.3515 10.5833 12.2772C10.4167 12.1089 10.75 12.5297 10.4495 12.9003C10.034 13.413 11.0252 13.6385 11.1033 14.0606C11.4086 14.0861 11.1543 13.2061 11.0959 12.715Z" fill="#FFA476"/>
<path d="M8.75 26.5842L9.25 25.9109L10.0833 26.4158L10.5833 26.7525L11.4167 27.5941L11.75 28.5198L11.1667 29.2772L10.5 29.9505L9.75 30.5396L8.5 31.0446L7.66667 30.9604L7.16667 30.7079L6.66667 30.3713L5.91667 29.4455L5.5 28.6881L5 27.5099L4.41667 25.995L4 24.3119L3.83333 23.1337L2.83333 22.8812L2.16667 22.5446L1.75 22.0396L1.41667 21.5347L1.5 20.6089L1.58333 20.4406H1.5L1.41667 20.104V19.599L1.58333 19.2624L1.83333 19.0099V18.8416L1.91667 18.3366L2.08333 18L2.66667 17.5792L3.33333 17.495L4.16667 17.7475L4.66667 18L4.58333 17.4109L4.33333 16.401L4.5 15.4752L4.75 14.8861L5.16667 14.6337L5.66667 14.5495L5.83333 14.6337H6L6.08333 14.8861V15.2228L6 16.401L5.91667 17.0743L6.16667 17.8317L6.5 18.6733L6.83333 19.7673L6.91667 20.4406L6.66667 21.1139L6.25 21.6188V21.7871L6.91667 23.4703L7.5 24.6485L8.25 25.995L8.66667 26.6683L8.75 26.5842Z" fill="#FFBD89"/>
<path d="M15.6667 12.1931C15.8333 13.0347 15.1667 13.9604 14.25 13.8762C13.4216 13.8762 12.6667 13.1139 12.6667 12.2772C12.6667 11.4406 13.3382 10.7624 14.1667 10.7624C14.9951 10.7624 15.6667 11.3564 15.6667 12.1931Z" fill="#FEF7EA"/>
<path d="M22.8333 13.0347C22.7954 13.9164 21.7994 14.6006 20.8437 14.2598C19.9606 14.0272 19.3511 13.0589 19.5654 12.2289C19.7797 11.3989 20.6694 10.9146 21.5525 11.1472C22.4357 11.3797 23.0476 12.2046 22.8333 13.0347Z" fill="#FEF7EA"/>
<path d="M10.1667 24.7327L9.25 25.9109L9.33333 25.995L10.1667 26.4158L11 27.0049L11.4167 27.6782L11.6667 28.2673L11.75 28.8564H11.9167L12.4167 28.5198V28.6881L12.0833 30.7921L11.9167 32.4752C11.8903 32.5819 11.8387 33.0184 11.8337 33.6398C11.8332 33.7002 11.8643 33.756 11.918 33.7826C12.6073 34.1239 14.6739 34.6597 14.8333 34.5792L13.5833 34.0743L13.4167 33.9059L13.3479 33.7322C13.2847 33.5727 13.2795 33.3957 13.3333 33.2327H13.25L13.1667 33.1485L13.0833 32.8119L13 32.4752L13.0833 32.3069L13.1667 32.2228L13 32.1386L12.8333 31.8861L12.75 31.5495V31.2129L12.8333 31.0446H13L13.0833 30.9604L13 30.8762L12.9167 30.4554L12.6667 28.8564L12.5833 27.8465L12.5 26.1634L12.5833 25.8267L13 25.4901L13.5833 25.3218L16.25 24.8168L19.0833 24.1436L20.8333 23.8069L21.25 23.7228L21.4167 23.9752L21.5 24.3119L22.1667 24.2277L22.5833 24.396L22.8333 24.5644L22.9167 24.6485V24.7327L23.3333 27.5941L23.6667 29.5297L23.75 29.8663L24.25 29.2772L24.8333 28.8564L25.9167 28.1832L27.0833 27.9307L28.0833 27.8465L28.6667 27.9307L28.5 27.6782L27.5833 26.1634L27.25 25.5743L26.5 24.1436L25.8333 23.0495L25.1667 22.2921L24.8333 21.9554L23.9167 21.4505L23.1667 21.198L21.5833 20.7772L21.0833 20.6931L21.1667 21.2822L21 21.703L20.75 22.1238L20.0833 22.797L19.5 23.0495L18.8333 23.2178L18.0833 23.302L17 22.9653L16.5 22.7129L16.1667 22.2079V21.6188L16.25 21.2822V20.9455H15.3333L14.25 21.1139L13.1667 21.7871L11.75 22.8812L10.1667 24.7327Z" fill="#5E9396"/>
<path d="M13.1336 32.2384C13.8914 32.314 14.4549 32.7041 15.1875 32.673C15.1549 32.6918 15.0248 32.6586 15.1252 32.6472C15.0493 32.6611 15.244 32.6649 15.1413 32.6744C14.4168 32.7407 13.8158 32.3842 13.1588 32.3149C13.0861 32.3377 13.0611 32.4439 13.0602 32.5386C13.0588 32.6362 13.0756 32.7365 13.1011 32.8332C13.1348 32.9552 13.1816 33.0852 13.2583 33.1704C13.8828 33.6084 14.7309 33.7101 15.5071 33.7461C15.5287 33.7455 15.5311 33.7603 15.5095 33.7618C15.5089 33.7619 15.5083 33.7619 15.5076 33.762C14.7199 33.7597 13.8873 33.7018 13.2004 33.2288C13.0999 33.1165 13.0584 32.9861 13.0207 32.855C12.9937 32.7521 12.976 32.6463 12.9779 32.537C12.9819 32.4352 12.9984 32.2885 13.1336 32.2384Z" fill="#522F19"/>
<path d="M12.7698 31.0881C12.8808 30.9848 12.9657 30.9848 13.0833 30.9604C13.151 30.9745 13.165 31.0672 13.2222 31.102C13.1602 31.0773 13.0945 31.0615 13.0298 31.0579C12.9475 31.0528 12.8629 31.0747 12.8197 31.1336C12.7755 31.1915 12.7674 31.2736 12.7717 31.3537C12.7399 31.8064 13.0236 32.1838 13.5 32.3069C14.4167 32.5594 14.5 32.5594 15.1869 32.6601C15.2065 32.6638 15.2036 32.6923 15.1836 32.6917C14.5819 32.6688 13.9751 32.6152 13.3929 32.3924C13.1908 32.3099 12.9814 32.2007 12.8312 32.0135C12.674 31.8261 12.6571 31.5646 12.6742 31.3537C12.6793 31.2628 12.6981 31.1611 12.7698 31.0881Z" fill="#522F19"/>
<path d="M27.9569 27.8303C28.0429 27.8303 28.0892 27.9126 28.4167 28.9406C28.7456 29.9731 29.0715 31.0818 28.745 32.168C28.7014 32.313 28.6309 32.449 28.5375 32.5677C27.5563 33.8149 25.8282 33.9384 24.3899 34.2027C23.6913 34.2999 22.9875 34.3727 22.2829 34.4186C21.6225 34.4617 20.96 34.4814 20.2978 34.475C19.7778 34.4704 19.2714 34.6636 18.7552 34.8166C17.0555 35.2222 15.2481 34.9348 13.7115 34.1534C13.5655 34.0692 13.4163 33.9791 13.3333 33.8218C13.249 33.6647 13.2528 33.4615 13.2864 33.2956C13.287 33.2929 13.2872 33.2869 13.2886 33.2793C13.2895 33.2754 13.2901 33.2707 13.2946 33.2631C13.298 33.255 13.3164 33.2466 13.3247 33.2495C13.5054 33.3605 13.663 33.4408 13.8501 33.5014C14.2129 33.6204 14.5483 33.675 14.9312 33.7042C14.5475 33.686 14.2103 33.6424 13.8405 33.5318C13.6626 33.4799 13.4775 33.3949 13.3325 33.3046C13.251 33.6362 13.4474 33.953 13.7458 34.0914C15.2689 34.8278 17.0819 35.0792 18.7122 34.6715C19.2199 34.517 19.737 34.3113 20.299 34.3121C20.957 34.3152 21.6154 34.294 22.272 34.2512C22.9726 34.2055 23.6727 34.1351 24.3681 34.0421C25.8336 33.7899 27.6124 33.6459 28.5218 32.4111C28.5572 32.363 28.5859 32.3099 28.6066 32.2537C28.9975 31.1944 28.657 29.9966 28.3409 28.9211C28.2252 28.5528 28.0945 28.1906 27.9569 27.8303Z" fill="#522F19"/>
<path d="M12.5262 28.5678C12.4888 28.6318 12.4454 28.7562 12.4254 28.8347C12.1907 30.0101 12.1183 31.2225 12.0019 32.4217C11.9716 32.7643 11.9321 33.1076 11.8838 33.4498C11.8732 33.5245 11.9003 33.6302 11.8981 33.7109C11.8976 33.7287 11.8819 33.7412 11.8644 33.7399C11.8468 33.7386 11.8332 33.7239 11.8312 33.7063C11.8215 33.6245 11.7833 33.5178 11.7842 33.4421C11.7882 33.096 11.8057 32.7499 11.8362 32.4066C11.9531 31.2039 12.0544 29.9963 12.3525 28.8144C12.3779 28.7338 12.4037 28.6455 12.4545 28.5678C12.4718 28.5794 12.5089 28.5562 12.5262 28.5678Z" fill="#522F19"/>
<path d="M3.90959 23.1215C4.07507 24.4285 4.55156 26.3503 5.25536 27.9643C5.60731 28.7714 6.01428 29.4974 6.46462 30.0306C6.916 30.565 7.40173 30.8952 7.9105 30.9347C8.96088 31.0162 9.75048 30.549 10.3545 29.9916C10.6569 29.7126 10.9113 29.4123 11.1279 29.148C11.3414 28.8876 11.5249 28.6535 11.6776 28.5216L11.7858 28.6491C11.6473 28.7688 11.477 28.9857 11.2563 29.2549C11.0388 29.5202 10.7783 29.8282 10.467 30.1154C9.84375 30.6906 9.01079 31.1882 7.89782 31.1018C7.32492 31.0574 6.80174 30.6886 6.33786 30.1394C5.87294 29.5889 5.45823 28.8467 5.10292 28.0318C4.39223 26.402 3.91183 24.4645 3.74448 23.1428L3.90959 23.1215Z" fill="#522F19"/>
<path d="M9.26521 25.8224C9.72842 26.001 10.3972 26.3715 10.937 26.9153C11.4772 27.4595 11.8333 28.0149 11.8355 28.7319C11.8352 28.7371 11.8355 28.7417 11.8357 28.7457C12.0631 28.5508 12.4628 28.4845 12.5881 28.3582L12.5891 28.3572L12.5901 28.3564L12.6469 28.4175L12.7058 28.4769C12.5825 28.6012 12.1767 28.6737 11.9429 28.874C11.89 28.9193 11.8131 28.9467 11.744 28.9018C11.6819 28.8614 11.665 28.7855 11.6694 28.7204C11.6667 28.0149 11.3391 27.5577 10.8193 27.0341C10.2991 26.51 9.65151 26.1509 9.20573 25.979L9.26521 25.8224Z" fill="#522F19"/>
<path d="M21.1077 23.6399C21.1893 23.6124 21.2629 23.6354 21.3196 23.683C21.3722 23.7272 21.4115 23.7926 21.441 23.8593C21.5006 23.994 21.5352 24.1671 21.5495 24.2975C21.5546 24.3435 21.5217 24.3849 21.4761 24.39C21.4304 24.3952 21.3892 24.362 21.3841 24.316C21.3707 24.1946 21.3388 24.0404 21.2889 23.9276C21.2636 23.8706 21.2373 23.8322 21.2131 23.812C21.193 23.7951 21.1785 23.7929 21.1603 23.799C21.1238 23.8113 20.9718 23.8466 20.7438 23.8976C20.5121 23.9495 20.1947 24.0191 19.8202 24.1003C19.4457 24.1816 19.014 24.2747 18.5538 24.3737L15.6779 24.9911C15.2177 25.09 14.7862 25.1831 14.4118 25.2644C14.0374 25.3456 13.7204 25.415 13.4892 25.4667C13.2545 25.5193 13.1151 25.5521 13.0893 25.5608C12.9684 25.6014 12.8428 25.6579 12.7545 25.7736C12.6677 25.8874 12.6065 26.0728 12.6463 26.3937C12.6635 26.5325 12.6759 26.8513 12.6916 27.2526C12.7074 27.6567 12.7267 28.1502 12.7576 28.6451C12.7885 29.1403 12.8308 29.635 12.8923 30.0416C12.9231 30.245 12.9584 30.4247 12.9989 30.5706C13.04 30.7184 13.0845 30.8235 13.1296 30.884C13.1699 30.9382 13.2539 30.9942 13.3867 31.0457C13.5169 31.0963 13.6834 31.1387 13.8753 31.1729C14.0747 31.2084 14.5782 31.2627 14.8135 31.2804C14.8923 31.2863 14.9326 31.2783 15.0133 31.2823C15.1554 31.2895 15.0602 31.2788 15.2039 31.2804C15.673 31.2856 16.1325 31.2622 16.4837 31.217C16.6596 31.1943 16.8057 31.1663 16.9114 31.1349C16.9644 31.1191 17.0045 31.1032 17.0322 31.0882C17.062 31.0719 17.0668 31.0623 17.0656 31.0646C17.0656 31.0646 17.0661 31.0636 17.0663 31.0613C17.0665 31.0586 17.0664 31.0538 17.0648 31.0462C17.0615 31.0304 17.0528 31.008 17.0357 30.9782C17.0015 30.9185 16.943 30.8449 16.8662 30.7583C16.79 30.6724 16.6999 30.5784 16.6044 30.4772C16.5096 30.3766 16.4101 30.2697 16.3176 30.1604C16.1353 29.9451 15.9684 29.7077 15.9235 29.4786C15.9004 29.3609 15.909 29.2422 15.9662 29.1309C16.023 29.0206 16.1233 28.926 16.2685 28.8471L16.2719 28.8451L16.2755 28.8437C16.3731 28.802 16.4667 28.8129 16.5537 28.855C16.6366 28.8951 16.7158 28.9644 16.7938 29.0424C16.9561 29.205 17.1228 29.4132 17.3596 29.6113C17.4611 29.6962 17.6284 29.8007 17.8359 29.9259C18.0411 30.0497 18.2818 30.1917 18.5218 30.3485C18.9926 30.6563 19.48 31.0335 19.7029 31.4691C19.7068 31.4703 19.7124 31.4715 19.7201 31.4728C19.7501 31.4775 19.7963 31.4789 19.8599 31.4754C19.9861 31.4684 20.165 31.4432 20.3863 31.403C20.8278 31.3225 21.4274 31.1835 22.0894 31.0166C22.8971 30.8129 23.7955 30.5678 24.6093 30.338C24.7078 30.3102 24.7583 30.2002 24.7152 30.1066C24.6571 29.9803 24.5902 29.8372 24.5269 29.7065C24.4775 29.6045 24.4307 29.5106 24.3924 29.4385C24.3732 29.4023 24.3564 29.3724 24.3428 29.35C24.336 29.3388 24.3305 29.33 24.3261 29.3236C24.3212 29.3167 24.3194 29.3149 24.3202 29.3157C24.2878 29.283 24.2877 29.2299 24.3202 29.1971C24.3527 29.1644 24.4054 29.1644 24.4379 29.1971C24.4542 29.2136 24.4707 29.2392 24.485 29.2628C24.5008 29.289 24.5191 29.3218 24.539 29.3592C24.5788 29.434 24.6267 29.53 24.6764 29.6328C24.7417 29.7676 24.8106 29.9154 24.87 30.0446C24.9028 30.1162 24.9802 30.1554 25.0565 30.1389L25.9446 29.9471C25.9899 29.9373 26.0348 29.9654 26.0462 30.0108C26.0576 30.0562 26.0316 30.1024 25.9871 30.1156C24.9472 30.4222 23.423 30.8532 22.1299 31.1793C21.4669 31.3465 20.863 31.4865 20.4158 31.568C20.1928 31.6086 20.0058 31.6352 19.8691 31.6428C19.8013 31.6466 19.7415 31.646 19.6944 31.6386C19.671 31.6349 19.6468 31.6289 19.6251 31.6186C19.6036 31.6084 19.5774 31.5904 19.5618 31.5591C19.365 31.1622 18.9084 30.8012 18.4312 30.4893C18.1945 30.3345 17.9575 30.1949 17.7505 30.07C17.546 29.9466 17.3666 29.8352 17.2533 29.7405C17.0104 29.5372 16.8215 29.3067 16.6764 29.1614C16.6007 29.0855 16.538 29.0336 16.4817 29.0064C16.4307 28.9817 16.3884 28.9787 16.3434 28.997C16.2208 29.0644 16.1507 29.1367 16.114 29.2081C16.0773 29.2793 16.0694 29.358 16.0867 29.446C16.1224 29.6285 16.2625 29.8368 16.4442 30.0515C16.5336 30.1571 16.6304 30.2613 16.725 30.3616C16.819 30.4613 16.9118 30.558 16.9902 30.6464C17.0681 30.7342 17.1363 30.8186 17.1797 30.8942C17.2195 30.9636 17.2561 31.0557 17.2145 31.1396C17.1925 31.184 17.1506 31.2144 17.1113 31.2358C17.0695 31.2586 17.0173 31.2783 16.9585 31.2958C16.8407 31.3309 16.6847 31.3601 16.5048 31.3833C16.1442 31.4298 15.6768 31.4534 15.2021 31.4482C14.7275 31.4429 14.2421 31.4088 13.8464 31.3382C13.6487 31.303 13.4708 31.2581 13.3269 31.2022C13.1855 31.1473 13.0654 31.0774 12.9965 30.9848C12.9323 30.8985 12.8812 30.7686 12.8387 30.6158C12.7956 30.4609 12.7591 30.2738 12.7278 30.0669C12.6652 29.6529 12.6225 29.1524 12.5915 28.6556C12.5605 28.1584 12.541 27.6631 12.5252 27.2592C12.5093 26.8525 12.4972 26.5441 12.4811 26.4145C12.4377 26.0643 12.5013 25.8302 12.6225 25.6712C12.7422 25.5144 12.9078 25.445 13.0366 25.4017C13.0731 25.3894 13.2251 25.3541 13.4531 25.3031C13.6848 25.2512 14.0023 25.1816 14.3767 25.1004C15.1257 24.9378 16.1036 24.7281 17.0812 24.5183C18.0589 24.3086 19.0364 24.0988 19.7851 23.9363C20.1595 23.8551 20.4766 23.7857 20.7077 23.734C20.9423 23.6815 21.0816 23.6486 21.1077 23.6399Z" fill="#522F19"/>
<path d="M5.9072 17.0078C5.90721 16.8567 5.92319 16.6485 5.94263 16.4212C5.96221 16.1922 5.98545 15.942 6.00097 15.702C6.01652 15.4617 6.02402 15.2353 6.01267 15.0548C6.00699 14.9645 5.99669 14.8884 5.98147 14.829C5.96575 14.7677 5.94716 14.7338 5.93158 14.7181C5.8866 14.6727 5.79703 14.6303 5.674 14.612C5.55329 14.5941 5.40961 14.6012 5.26544 14.6448C4.98044 14.731 4.69087 14.9607 4.57346 15.4343C4.45228 15.9231 4.46622 16.5027 4.53543 17.0029C4.56994 17.2522 4.6178 17.4799 4.66853 17.664C4.71658 17.8385 4.76589 17.9684 4.80585 18.0412C4.94335 18.1419 5.02723 18.3032 5.07319 18.4733C5.12139 18.6518 5.13116 18.8503 5.11219 19.0262C5.09352 19.1992 5.04558 19.3637 4.96739 19.4661C4.92761 19.5182 4.87334 19.5626 4.80358 19.573C4.73199 19.5836 4.66425 19.5554 4.60515 19.5046C4.38748 19.3176 4.05027 19.1954 3.7071 19.1206C3.40878 19.0555 3.11503 19.0284 2.91046 19.0226L2.82856 19.0213L2.81182 19.0196C2.77388 19.0118 2.74535 18.9779 2.74535 18.9374C2.74539 18.8911 2.78263 18.8535 2.82856 18.8535L2.91452 18.8548C3.12865 18.8608 3.43282 18.8893 3.7422 18.9567C4.09352 19.0333 4.4636 19.1627 4.71306 19.377C4.74822 19.4072 4.76945 19.4084 4.77936 19.407C4.79107 19.4053 4.81089 19.3962 4.83559 19.3639C4.88636 19.2974 4.92938 19.1691 4.94675 19.008C4.96382 18.8497 4.95457 18.6727 4.91262 18.5174C4.87038 18.3611 4.79795 18.2367 4.69648 18.1684C3.6661 17.4826 2.95356 17.4991 2.51491 17.7646C2.07 18.034 1.87366 18.5778 1.91296 19.0137L1.91897 19.0799L1.8564 19.1009C1.75685 19.1344 1.67763 19.2109 1.61832 19.32C1.55878 19.4295 1.52197 19.5673 1.50716 19.7116C1.49239 19.8556 1.49992 20.0016 1.52536 20.125C1.5514 20.2513 1.59382 20.3423 1.63929 20.3882L1.6817 20.4309L1.65489 20.485C1.42155 20.9555 1.44609 21.5101 1.89817 22.1613C2.1134 22.4713 2.56659 22.6887 3.06745 22.8313C3.56345 22.9725 4.08524 23.0346 4.41289 23.0484C4.45881 23.0503 4.4946 23.0894 4.49269 23.1357C4.49076 23.182 4.45195 23.2179 4.40607 23.216C4.06807 23.2018 3.53305 23.1381 3.02227 22.9927C2.51636 22.8486 2.01271 22.6186 1.76198 22.2574C1.29685 21.5875 1.24293 20.9842 1.4823 20.4594C1.42517 20.3803 1.38601 20.2731 1.36253 20.1593C1.33338 20.0179 1.3253 19.8545 1.34172 19.6944C1.35812 19.5346 1.39933 19.3735 1.47238 19.2392C1.53541 19.1233 1.62413 19.0241 1.74313 18.9665C1.72218 18.4908 1.94078 17.9165 2.42926 17.6208C2.90808 17.3309 3.61807 17.3242 4.56208 17.8861C4.54383 17.8317 4.52576 17.7724 4.50829 17.7089C4.45548 17.5172 4.40594 17.2824 4.37048 17.0261C4.29976 16.5151 4.2835 15.9114 4.41192 15.3935C4.54411 14.8603 4.87861 14.5866 5.21766 14.4841C5.38546 14.4333 5.55373 14.4246 5.69821 14.4461C5.84036 14.4671 5.96939 14.5189 6.04924 14.5994C6.09606 14.6466 6.12427 14.7151 6.14268 14.7869C6.16158 14.8606 6.17274 14.9483 6.17876 15.0441C6.19081 15.2358 6.18271 15.471 6.16706 15.713C6.15139 15.9553 6.12782 16.2084 6.10839 16.4356C6.08883 16.6644 6.07362 16.8652 6.07362 17.0078C6.07361 17.1391 6.12206 17.3296 6.20265 17.5642C6.2824 17.7964 6.38958 18.0609 6.50021 18.3377C6.71899 18.885 6.95407 19.4857 6.98856 19.9377C7.05407 20.7963 6.60862 21.4108 6.3351 21.651C6.54951 22.3953 7.05461 23.4749 7.61391 24.5618C7.9629 25.2399 8.33174 25.9178 8.6605 26.5151C8.66222 26.511 8.6637 26.5073 8.66521 26.5041C8.67837 26.4764 8.70138 26.4382 8.73428 26.3891C8.80104 26.2895 8.91671 26.1323 9.09944 25.899C9.4653 25.4319 10.1042 24.6548 11.1695 23.4128C13.3147 20.912 15.4306 20.6643 16.245 20.8696C16.2896 20.8808 16.3167 20.9264 16.3056 20.9713C16.2944 21.0162 16.2492 21.0435 16.2047 21.0323C15.4658 20.846 13.4103 21.0569 11.2953 23.5226C10.2306 24.7639 9.59354 25.5389 9.22994 26.003C9.048 26.2353 8.9355 26.3886 8.87225 26.483C8.84776 26.5195 8.83222 26.5458 8.82268 26.5631L9.19695 27.4688C9.21491 27.5122 9.19612 27.5623 9.15415 27.5828C9.11223 27.6033 9.06176 27.5872 9.03909 27.5461C8.62408 26.7941 8.02068 25.7164 7.46619 24.6389C6.89446 23.5279 6.37055 22.409 6.15991 21.6444L6.14496 21.5904L6.189 21.5558C6.42201 21.373 6.88655 20.7887 6.82264 19.9507C6.79056 19.5302 6.56804 18.9563 6.34582 18.4004C6.23596 18.1256 6.12679 17.8563 6.04534 17.6191C5.96473 17.3845 5.9072 17.1701 5.9072 17.0078Z" fill="#522F19"/>
<path d="M2.74405 20.2457C3.38523 20.2894 4.17258 20.3218 4.56972 21.0045C4.60196 21.0864 4.61936 21.1778 4.61295 21.2691C4.54196 21.7908 3.99475 21.9891 3.56994 21.9439C3.241 21.8993 2.92414 21.8074 2.62151 21.6793C2.54535 21.646 2.46923 21.6105 2.39708 21.5655C2.39022 21.5612 2.38503 21.5543 2.38294 21.5464C2.38086 21.5384 2.38202 21.53 2.38603 21.5229C2.39005 21.5158 2.3967 21.5106 2.40456 21.5084C2.41239 21.5061 2.42077 21.5071 2.42796 21.5108C2.49796 21.5466 2.57493 21.5755 2.65109 21.6019C2.95424 21.7039 3.27022 21.7749 3.58489 21.8036C3.9541 21.8342 4.41464 21.6148 4.44686 21.2577C4.45129 21.1939 4.43991 21.1284 4.41566 21.0651C4.13363 20.5359 3.36149 20.4052 2.73933 20.3283C2.65834 20.3204 2.57701 20.3147 2.49573 20.3112C2.48764 20.3109 2.47984 20.3076 2.47411 20.3017C2.46838 20.2958 2.46517 20.2879 2.46517 20.2798C2.46517 20.2716 2.46838 20.2637 2.47411 20.2578C2.47984 20.2519 2.48764 20.2486 2.49573 20.2483C2.57825 20.2448 2.66116 20.244 2.74405 20.2457Z" fill="#522F19"/>
<path d="M21.5397 24.2235C22.1293 24.1387 22.4721 24.2001 22.6654 24.2941C22.7622 24.3412 22.8236 24.3975 22.8573 24.4496C22.8735 24.4746 22.8861 24.503 22.8892 24.5315C22.8906 24.5449 22.8909 24.5671 22.8801 24.5899C22.8668 24.6178 22.8377 24.6423 22.7982 24.6423C22.7889 24.6423 22.7721 24.6448 22.7351 24.6541C22.7176 24.6585 22.6974 24.664 22.673 24.6705C22.6489 24.6769 22.6212 24.6841 22.5895 24.6921C22.4621 24.7242 22.272 24.7669 21.9778 24.8093C21.8374 24.8295 21.3234 24.9537 20.6145 25.1301C19.9092 25.3056 19.0163 25.5313 18.1272 25.7515C17.2379 25.9717 16.3503 26.1869 15.6538 26.3418C15.3056 26.4193 15.0042 26.4818 14.7738 26.5224C14.6586 26.5427 14.5782 26.5756 14.5 26.5842C14.425 26.5924 14.3772 26.5915 14.3333 26.5842C13.9256 26.5156 13.56 26.371 13.4418 26.3114L13.4372 26.3089L13.4329 26.3061C13.402 26.2853 13.3733 26.2593 13.3558 26.2258C13.3366 26.1889 13.3339 26.1482 13.3479 26.11C13.3605 26.0754 13.3846 26.0488 13.4078 26.029C13.4317 26.0087 13.4604 25.9909 13.4905 25.9751C13.6087 25.9133 13.7928 25.861 13.9581 25.8193C14.2923 25.7351 17.322 25.0302 19.4522 24.5604C20.3334 24.366 20.8745 24.3073 21.5397 24.2235ZM22.5932 24.4452C22.4416 24.3715 22.1361 24.3071 21.5618 24.3898L21.5605 24.39C20.8943 24.4739 20.3603 24.5318 19.4876 24.7242C17.3576 25.194 14.33 25.8984 13.9984 25.982C13.8309 26.0242 13.6655 26.0727 13.5673 26.1241C13.5434 26.1366 13.5263 26.1478 13.5151 26.1573C13.5148 26.1576 13.5143 26.158 13.5143 26.158C13.5164 26.1597 13.5189 26.1618 13.5219 26.1639C13.6309 26.2177 13.9405 26.3407 14.3247 26.4053C14.3432 26.4084 14.3875 26.4079 14.4638 26.3995C14.537 26.3915 14.6316 26.3771 14.7451 26.3571C14.972 26.3171 15.2707 26.2552 15.618 26.178C16.3125 26.0235 17.1984 25.8088 18.0876 25.5886C18.977 25.3683 19.8678 25.1431 20.5745 24.9672C21.2773 24.7924 21.8034 24.6649 21.9544 24.6431C22.2426 24.6016 22.427 24.5602 22.5492 24.5294C22.5799 24.5217 22.6068 24.5146 22.6308 24.5083C22.6467 24.5041 22.6615 24.5001 22.6753 24.4965C22.6556 24.4804 22.629 24.4626 22.5932 24.4452Z" fill="#522F19"/>
<path d="M25.8687 28.1735C26.6477 27.8394 27.5187 27.7156 28.3512 27.8358C28.4445 27.8489 28.5349 27.8644 28.6277 27.8831C28.6356 27.8848 28.6428 27.8894 28.6475 27.8961C28.6522 27.9028 28.6542 27.9111 28.6529 27.9192C28.6515 27.9272 28.6471 27.9345 28.6405 27.9393C28.6339 27.9442 28.6256 27.9462 28.6176 27.9452C28.5248 27.9336 28.435 27.9249 28.3426 27.9182C27.5178 27.8567 26.6888 28.005 25.9334 28.3282C25.1792 28.6514 24.4835 29.1296 23.9176 29.7367C23.8568 29.8027 23.7941 29.8758 23.7386 29.9463C23.7336 29.9527 23.7262 29.957 23.7181 29.9582C23.7101 29.9594 23.7019 29.9573 23.6954 29.9525C23.6889 29.9476 23.6843 29.9405 23.683 29.9323C23.6817 29.9242 23.6837 29.9158 23.6882 29.9091C23.7393 29.8328 23.7981 29.7541 23.8553 29.6826C24.3894 29.0259 25.0902 28.507 25.8687 28.1735Z" fill="#522F19"/>
<path d="M21.1503 20.617C21.3006 20.6481 21.4517 20.679 21.6027 20.7107C22.8109 20.9826 24.1043 21.2294 25.0852 22.0815C26.1641 23.2046 26.8162 24.6222 27.5153 25.9825C27.5851 26.1177 27.655 26.2692 27.7306 26.3831C27.736 26.3893 27.7388 26.3974 27.7384 26.4057C27.7379 26.414 27.7343 26.4218 27.7282 26.4273C27.722 26.4329 27.714 26.4358 27.7057 26.4354C27.6975 26.435 27.6897 26.4312 27.6841 26.425C27.5904 26.2889 27.529 26.1513 27.4553 26.0136C26.744 24.6639 26.0662 23.2483 25.0043 22.1694C24.0615 21.3654 22.7752 21.1243 21.5709 20.87C21.42 20.8401 21.2688 20.811 21.1178 20.7815C21.0961 20.7772 21.077 20.7644 21.0648 20.7459C21.0526 20.7274 21.0481 20.7048 21.0524 20.6828C21.0568 20.6609 21.0696 20.6416 21.0879 20.6293C21.1062 20.6169 21.1287 20.6125 21.1503 20.617Z" fill="#522F19"/>
<path d="M9.4664 23.4261C9.53073 23.4159 9.59567 23.42 9.65849 23.4371C9.66633 23.4393 9.67322 23.4443 9.6775 23.4514C9.68175 23.4583 9.6832 23.4667 9.6814 23.4746C9.67958 23.4826 9.67462 23.4895 9.66775 23.494C9.66086 23.4984 9.65249 23.4999 9.64451 23.4984C9.58841 23.4877 9.53368 23.4887 9.4807 23.5012C8.77226 23.8786 8.70277 24.9091 8.66521 25.6896C8.66596 25.9252 8.67338 26.1612 8.71851 26.3893C8.73045 26.4472 8.74528 26.504 8.76418 26.5578C8.76685 26.5652 8.76702 26.5736 8.76434 26.5812C8.76165 26.5887 8.75635 26.5949 8.74939 26.5984C8.7424 26.6019 8.73426 26.6026 8.72664 26.6002C8.71902 26.5978 8.71259 26.5926 8.70828 26.5859C8.67506 26.5346 8.64693 26.4778 8.62312 26.419C8.53033 26.1868 8.4995 25.9355 8.4988 25.6896C8.50063 25.2592 8.56612 24.8316 8.69576 24.4216C8.8344 24.0343 9.00172 23.5485 9.4664 23.4261Z" fill="#522F19"/>
<path d="M15.2263 21.9576C15.2272 21.9905 15.2295 22.0247 15.2328 22.0571C15.2646 22.353 15.3581 22.6281 15.5076 22.8616C15.6572 23.0959 15.8732 23.2836 16.1359 23.4227C16.165 23.4382 16.194 23.4531 16.2248 23.4678C16.191 23.4638 16.1584 23.4591 16.1255 23.4528C15.8295 23.4 15.5039 23.2352 15.3333 22.9653C15.1612 22.6982 15.1417 22.3544 15.2011 22.0553C15.2078 22.0226 15.2163 21.9889 15.2263 21.9576Z" fill="#522F19"/>
<path d="M16.2708 20.1208C16.3068 20.1027 16.3496 20.1132 16.3735 20.1439L16.3824 20.1583L16.3946 20.185C16.4561 20.3298 16.5196 20.6433 16.3852 20.982C16.3012 21.1938 16.1208 21.6648 16.2355 22.1133C16.2919 22.3337 16.4204 22.5516 16.6751 22.7327C16.9316 22.9151 17.32 23.0628 17.8989 23.1328C18.9146 23.2557 19.7041 22.9283 20.2399 22.5002C20.5082 22.2858 20.7124 22.0464 20.849 21.8266C20.9872 21.6041 21.0508 21.4104 21.0508 21.2865C21.0508 21.0032 20.9907 20.7401 20.938 20.4744C20.8861 20.2126 20.8411 19.9472 20.8855 19.6787C20.8931 19.633 20.9359 19.6021 20.9812 19.6097C21.0266 19.6174 21.0572 19.6606 21.0497 19.7063C21.0108 19.9411 21.0491 20.1792 21.1012 20.4416C21.1525 20.7003 21.2172 20.9826 21.2172 21.2865C21.2172 21.4562 21.1352 21.682 20.99 21.9157C20.8432 22.1521 20.6261 22.4056 20.3432 22.6316C19.7765 23.0844 18.9435 23.4281 17.879 23.2993C17.283 23.2272 16.8654 23.0731 16.5792 22.8697C16.2914 22.665 16.1403 22.413 16.0743 22.1551C15.9444 21.647 16.1484 21.1275 16.2308 20.9198C16.346 20.6293 16.2886 20.3629 16.2425 20.2532L16.2336 20.2334L16.2276 20.2175C16.2176 20.1798 16.2348 20.1389 16.2708 20.1208Z" fill="#522F19"/>
<path d="M10.0676 22.5449C10.112 22.5449 10.1478 22.5801 10.1501 22.6242C10.3243 22.8243 10.605 22.9382 10.8832 22.8821L10.9239 22.8739L10.9549 22.9016C11.0214 22.9612 11.0928 23.0383 11.1506 23.1237C11.2078 23.208 11.2558 23.3065 11.2673 23.4079C11.2792 23.5136 11.2509 23.62 11.161 23.7075C11.0748 23.7913 10.9387 23.851 10.748 23.8859L10.744 23.8866L10.7399 23.8869C10.4005 23.915 10.1138 23.8494 9.90069 23.7532C9.7943 23.7052 9.70548 23.6491 9.63726 23.5925C9.57052 23.537 9.51819 23.4767 9.4923 23.4179C9.42162 23.2576 9.39734 23.119 9.4125 23.0003C9.42789 22.8799 9.48304 22.7867 9.55811 22.7178C9.69436 22.5928 9.89239 22.5508 10.0385 22.5459C10.0419 22.5456 10.0452 22.5455 10.0486 22.5456C10.055 22.5454 10.0614 22.5449 10.0676 22.5449ZM10.0089 22.7153C9.89096 22.7247 9.75667 22.7624 9.67009 22.8418C9.62176 22.8862 9.58739 22.944 9.57745 23.0217C9.56731 23.1012 9.5818 23.2081 9.64425 23.3498C9.65534 23.3749 9.68602 23.4156 9.74305 23.463C9.7986 23.5091 9.8745 23.5576 9.96879 23.6002C10.1561 23.6847 10.4131 23.7446 10.7214 23.7199C10.8948 23.6878 10.9931 23.6376 11.0454 23.5867C11.0943 23.5392 11.1086 23.4863 11.1018 23.427C11.0946 23.3634 11.0625 23.2913 11.0131 23.2184C10.9722 23.1581 10.9221 23.1016 10.8727 23.054C10.5369 23.1047 10.2091 22.9581 10.0089 22.7153Z" fill="#522F19"/>
<path d="M10.3562 20.8798C10.3952 20.8552 10.4466 20.8672 10.471 20.9065C10.4953 20.9458 10.4834 20.9975 10.4445 21.022L10.4079 21.0482C10.2165 21.2011 9.90498 21.6887 10.1479 22.6072C10.1597 22.652 10.1333 22.698 10.0889 22.7099C10.0501 22.7203 10.0103 22.7012 9.99303 22.6663L9.98717 22.6504L9.96345 22.5549C9.73759 21.5814 10.1045 21.0385 10.3562 20.8798Z" fill="#522F19"/>
<path d="M11.6889 21.2146C11.7283 21.1908 11.7794 21.2037 11.803 21.2434C11.8988 21.4044 11.9595 21.6811 11.8566 22.0042C11.7535 22.3284 11.4882 22.6923 10.9436 23.0355C10.9047 23.06 10.8534 23.0481 10.8291 23.0088C10.8047 22.9695 10.8166 22.9178 10.8556 22.8933C11.376 22.5653 11.61 22.2301 11.6982 21.9531C11.7812 21.6923 11.7373 21.4769 11.6733 21.3532L11.6603 21.3296L11.6532 21.3143C11.6403 21.2775 11.6544 21.2354 11.6889 21.2146Z" fill="#522F19"/>
<path d="M10.8407 18.6264C10.8732 18.5937 10.9258 18.5937 10.9583 18.6264C10.9908 18.6592 10.9908 18.7123 10.9583 18.7451C10.5646 19.1421 9.98177 20.2326 10.7715 21.4448C11.2092 21.3552 11.7445 21.1332 12.1089 20.7561C12.2976 20.5608 12.4395 20.3252 12.5006 20.0454C12.5617 19.7658 12.5434 19.4361 12.4024 19.0503C12.3866 19.0069 12.4086 18.9587 12.4517 18.9427C12.4894 18.9287 12.5307 18.9439 12.5511 18.9771L12.5586 18.9923L12.5853 19.0688C12.7114 19.4487 12.7277 19.7857 12.6631 20.0815C12.5942 20.3968 12.4346 20.6593 12.2281 20.8731C11.817 21.2985 11.2165 21.5349 10.7481 21.6208L10.6949 21.6304L10.6645 21.5855C9.76885 20.2656 10.4073 19.0634 10.8407 18.6264Z" fill="#522F19"/>
<path d="M11.2495 16.3698C11.2773 16.333 11.3294 16.3258 11.366 16.3539C11.4025 16.382 11.4096 16.4345 11.3817 16.4714C11.1668 16.7558 10.9214 17.2399 10.8827 17.7629C10.845 18.2719 11.0025 18.8203 11.5859 19.2674C11.8207 19.219 12.165 19.0647 12.4603 18.896C12.6142 18.8081 12.7508 18.7186 12.8479 18.642C12.8967 18.6035 12.9332 18.57 12.9567 18.5432C12.9684 18.5298 12.9754 18.5199 12.9789 18.5135C12.9798 18.5119 12.9802 18.5106 12.9805 18.5099C12.9846 18.4674 13.0197 18.4341 13.0629 18.4341C13.1089 18.4341 13.1461 18.4716 13.1461 18.518C13.1461 18.5484 13.1352 18.575 13.1244 18.5948C13.113 18.6155 13.098 18.6355 13.0815 18.6543C13.0484 18.692 13.0031 18.7326 12.9505 18.7741C12.8448 18.8574 12.7005 18.9515 12.5424 19.0418C12.2285 19.2212 11.8435 19.3952 11.5789 19.4397L11.5443 19.4456L11.5158 19.4244C10.8582 18.9358 10.6746 18.3194 10.7167 17.7503C10.7585 17.1869 11.0206 16.6727 11.2495 16.3698Z" fill="#522F19"/>
<path d="M28.7219 23.8889L28.738 23.8938L28.8224 23.931C29.2524 24.1293 29.8035 24.5064 30.1545 25.0429C30.5328 25.6213 30.6751 26.3814 30.1937 27.2828L30.1665 27.3331C30.2134 27.7255 30.2038 28.1471 30.1189 28.6009L30.1039 28.6809L30.0242 28.6682C29.204 28.5377 28.6252 28.0158 28.2333 27.4818C27.8413 26.9478 27.6299 26.393 27.5468 26.1835C27.4808 26.0171 27.4173 25.7144 27.3908 25.4031C27.3644 25.0937 27.3728 24.7563 27.4636 24.5273L27.4714 24.5122C27.4927 24.4796 27.5345 24.4655 27.5718 24.4806C27.6145 24.4978 27.6352 24.5465 27.6181 24.5895C27.5426 24.78 27.5308 25.0838 27.5567 25.3887C27.5825 25.6915 27.6438 25.9761 27.7014 26.1213C27.7846 26.3312 27.9893 26.8672 28.367 27.3818C28.7312 27.8781 29.2506 28.3466 29.9694 28.488C30.1787 27.2425 29.8004 26.2536 29.2394 25.4455C29.1492 25.3175 29.0606 25.2062 28.9785 25.1198C28.9468 25.0863 28.948 25.0332 28.9811 25.0011C29.0102 24.9731 29.0542 24.9705 29.086 24.9928L29.0988 25.0038L29.1666 25.0788C29.2351 25.158 29.3054 25.2494 29.3754 25.3488L29.3756 25.3492C29.3863 25.3646 29.397 25.3803 29.4076 25.3959C29.5953 25.6697 29.7825 26.0027 29.9276 26.3243C30.0289 26.5485 30.1118 26.7716 30.1597 26.9671C30.4699 26.2294 30.3296 25.6153 30.0155 25.1352C29.6866 24.6323 29.1641 24.2732 28.7541 24.084L28.6737 24.0485L28.6589 24.0404C28.6269 24.0185 28.6136 23.9761 28.6291 23.9387C28.6447 23.9013 28.684 23.8813 28.7219 23.8889Z" fill="#522F19"/>
<path d="M25.8768 17.5663C25.8844 17.5663 25.8917 17.5693 25.8974 17.5746C25.9032 17.5801 25.9067 17.5875 25.908 17.5951C25.9101 17.6077 25.9122 17.6203 25.9142 17.6328C25.9447 17.8232 25.96 18.0136 25.96 18.204C25.96 18.2401 25.9505 18.2764 25.9314 18.3125C25.9248 18.3251 25.9169 18.3376 25.908 18.3502C25.9038 18.356 25.8992 18.3618 25.8939 18.3659C25.8886 18.37 25.8828 18.3723 25.8768 18.3723C25.8708 18.3723 25.865 18.37 25.8597 18.3659C25.8544 18.3618 25.8498 18.356 25.8456 18.3502C25.8367 18.3376 25.8288 18.3251 25.8222 18.3125C25.8031 18.2764 25.7936 18.2401 25.7936 18.204C25.7936 18.0136 25.8089 17.8232 25.8394 17.6328C25.8414 17.6203 25.8435 17.6077 25.8456 17.5951C25.8469 17.5875 25.8504 17.5801 25.8562 17.5746C25.8619 17.5693 25.8692 17.5663 25.8768 17.5663Z" fill="#522F19"/>
<path d="M11.3988 19.9165C11.4061 19.9165 11.4132 19.9195 11.4188 19.9247C11.4245 19.9299 11.4281 19.9368 11.43 19.9442C11.4322 19.9526 11.4342 19.961 11.4362 19.9694C11.4667 20.0963 11.482 20.2233 11.482 20.3502C11.482 20.3743 11.4725 20.3983 11.4534 20.4223C11.4468 20.4307 11.439 20.4392 11.43 20.4475C11.4246 20.4525 11.4194 20.4573 11.4143 20.4608C11.4091 20.4643 11.404 20.4664 11.3988 20.4664C11.3937 20.4664 11.3886 20.4643 11.3834 20.4608C11.3783 20.4573 11.373 20.4525 11.3676 20.4475C11.3587 20.4392 11.3509 20.4307 11.3442 20.4223C11.3252 20.3983 11.3156 20.3743 11.3156 20.3502C11.3156 20.2233 11.331 20.0963 11.3615 19.9694C11.3635 19.961 11.3655 19.9526 11.3676 19.9442C11.3695 19.9368 11.3732 19.9299 11.3789 19.9247C11.3845 19.9195 11.3915 19.9165 11.3988 19.9165Z" fill="#522F19"/>
<path d="M9.24237 24.4467C9.24969 24.4485 9.25615 24.4532 9.26038 24.4598C9.26461 24.4664 9.26618 24.4744 9.26574 24.4821C9.26505 24.4938 9.26423 24.5055 9.26342 24.5172C9.25104 24.6939 9.22395 24.8669 9.18198 25.0361C9.17403 25.0682 9.15681 25.098 9.13035 25.1255C9.12113 25.135 9.11079 25.1443 9.09933 25.1533C9.09359 25.1577 9.08772 25.1619 9.08163 25.1645C9.07555 25.1671 9.06954 25.1679 9.0639 25.1665C9.05826 25.165 9.05331 25.1615 9.04916 25.1563C9.045 25.1511 9.04179 25.1446 9.03879 25.138C9.03287 25.1246 9.02807 25.1116 9.0244 25.0987C9.01387 25.062 9.01258 25.0275 9.02054 24.9954C9.0625 24.8262 9.11934 24.6607 9.19089 24.4989C9.19562 24.4882 9.20034 24.4775 9.2052 24.4669C9.20841 24.4598 9.21352 24.4536 9.22034 24.4497C9.22715 24.4459 9.23504 24.4448 9.24237 24.4467Z" fill="#522F19"/>
<path d="M26.6058 20.6015C26.613 20.6 26.6205 20.6016 26.627 20.6055C26.6336 20.6095 26.6385 20.6156 26.6418 20.6224C26.6456 20.6302 26.6492 20.638 26.6528 20.6458C26.7073 20.7633 26.7469 20.8837 26.7715 21.0073C26.7762 21.0307 26.7715 21.0561 26.7575 21.0833C26.7526 21.0928 26.7466 21.1026 26.7395 21.1126C26.7351 21.1185 26.7308 21.1241 26.7264 21.1286C26.722 21.133 26.7176 21.136 26.7125 21.1371C26.7075 21.1381 26.7022 21.137 26.6965 21.1346C26.6907 21.1322 26.6846 21.1287 26.6783 21.1249C26.6679 21.1186 26.6586 21.1119 26.6504 21.105C26.6271 21.0854 26.6131 21.0638 26.6084 21.0403C26.5838 20.9168 26.5742 20.7902 26.5795 20.6606C26.5798 20.652 26.5802 20.6434 26.5806 20.6348C26.5811 20.6272 26.5833 20.6197 26.5878 20.6135C26.5923 20.6073 26.5987 20.6029 26.6058 20.6015Z" fill="#522F19"/>
<path d="M28.3566 26.2954C28.3631 26.291 28.3711 26.2894 28.3789 26.2908C28.3868 26.2922 28.3939 26.2966 28.399 26.3027C28.4118 26.3183 28.4246 26.3339 28.4374 26.3496C28.6306 26.5864 28.8113 26.8318 28.9791 27.0857C29.0109 27.1338 29.0348 27.1873 29.0508 27.246C29.0564 27.2665 29.061 27.2877 29.0646 27.3094C29.0658 27.3167 29.066 27.3243 29.064 27.3313C29.062 27.3383 29.0581 27.3441 29.0525 27.3479C29.0469 27.3516 29.0401 27.3531 29.0329 27.3522C29.0257 27.3513 29.0189 27.3482 29.0127 27.3443C28.9941 27.3326 28.9766 27.3202 28.9599 27.3071C28.9123 27.2697 28.8725 27.2269 28.8407 27.1787C28.6728 26.9249 28.5176 26.6623 28.3752 26.3914C28.3657 26.3735 28.3563 26.3556 28.347 26.3376C28.3434 26.3306 28.3421 26.3223 28.3438 26.3144C28.3455 26.3066 28.3501 26.2997 28.3566 26.2954Z" fill="#522F19"/>
<path d="M19.9824 15.9557C20.0073 15.9168 20.0587 15.9056 20.0973 15.9307C20.1833 15.9865 20.3962 16.1032 20.5127 16.1822C20.5686 16.2201 20.5563 16.2413 20.5686 16.2569C20.578 16.2687 20.5992 16.2993 20.5927 16.3401C20.5839 16.3951 20.5376 16.4144 20.5127 16.4186C20.4888 16.4227 20.4652 16.4186 20.4471 16.4137C20.3938 16.3995 20.3199 16.375 20.234 16.3462C18.5 17.9158 16.245 17.495 15.098 16.5484L15.0118 16.4891L14.9991 16.4778C14.9727 16.4493 14.9688 16.4052 14.992 16.3721C15.0186 16.3343 15.0706 16.3254 15.108 16.3521C15.9511 16.9554 18.1443 17.766 20.1679 16.1864L20.1732 16.1822L20.0073 16.0716L19.994 16.0611C19.9663 16.0338 19.9607 15.9898 19.9824 15.9557Z" fill="#522F19"/>
<path d="M15.9752 14.5749C15.9752 14.204 16.1627 13.9815 16.3947 13.8607C16.5849 13.7616 16.8038 13.731 16.9737 13.7325V13.3165C16.9737 13.2702 17.0109 13.2326 17.0569 13.2326C17.1028 13.2326 17.1401 13.2702 17.1401 13.3165V13.911L17.0499 13.9034C16.8937 13.8903 16.661 13.9108 16.471 14.0098C16.287 14.1057 16.1416 14.2747 16.1416 14.5749C16.1416 14.7684 16.194 14.9129 16.2773 15.0204C16.3612 15.1287 16.4813 15.2058 16.6259 15.2551C16.9173 15.3544 17.2948 15.3361 17.6177 15.2489C17.6621 15.2369 17.7079 15.2635 17.7198 15.3082C17.7317 15.3529 17.7053 15.3991 17.661 15.4111C17.3183 15.5036 16.9052 15.5274 16.5726 15.414C16.4052 15.3569 16.2548 15.2638 16.1463 15.1238C16.0373 14.9831 15.9752 14.8009 15.9752 14.5749Z" fill="#522F19"/>
<path d="M13.8994 8.67368C14.3751 8.51811 14.9238 8.53021 15.4248 8.76167C15.4801 8.78771 15.5374 8.81856 15.5925 8.85326C15.6689 8.89881 15.7207 8.97149 15.7331 9.05972C15.7456 9.14769 15.7178 9.24399 15.659 9.32304C15.6002 9.40209 15.5163 9.45608 15.429 9.46855C15.3415 9.48126 15.2578 9.45148 15.193 9.39022C15.1682 9.36441 15.1377 9.33747 15.1062 9.31255C14.8107 9.08191 14.3885 8.9597 13.9698 9.00172C13.5464 9.04082 13.1275 9.2414 12.7659 9.52737C12.7263 9.55833 12.6867 9.59088 12.6469 9.62519C12.6787 9.5832 12.7105 9.54261 12.7427 9.50328C13.0379 9.14381 13.4203 8.8298 13.8994 8.67368Z" fill="#522F19"/>
<path d="M21.9131 9.13387C21.4269 8.86904 20.8501 8.74215 20.2545 8.83284C20.1885 8.84356 20.1193 8.8583 20.051 8.87772C19.9652 8.90032 19.8953 8.95592 19.8584 9.03685C19.8214 9.11753 19.8203 9.2171 19.8538 9.3088C19.8874 9.40046 19.9522 9.47541 20.0323 9.51256C20.1125 9.54997 20.2015 9.54657 20.2814 9.5076C20.3188 9.4877 20.3625 9.4685 20.4065 9.45177C20.8175 9.29976 21.321 9.29538 21.7813 9.44213C22.246 9.58763 22.6732 9.88901 23.0193 10.2764C23.0576 10.3189 23.0949 10.3624 23.1323 10.4081C23.1041 10.3561 23.0756 10.306 23.0459 10.2564C22.7774 9.80662 22.401 9.40012 21.9131 9.13387Z" fill="#522F19"/>
<path d="M27.1405 12.8705C27.1475 12.8748 27.1525 12.8817 27.1545 12.8896C27.1564 12.8975 27.1552 12.9059 27.1511 12.9129C27.1469 12.92 27.1403 12.9251 27.1325 12.9275C27.0641 12.9485 26.9947 12.9767 26.9279 13.0066C26.4998 13.2066 26.0829 13.498 25.843 13.8898C25.9682 13.8164 26.1083 13.7621 26.2637 13.7587C26.456 13.7485 26.6672 13.8736 26.7344 14.062C26.8681 14.447 26.6413 14.8005 26.4032 15.0365C26.349 15.0895 26.2912 15.139 26.2296 15.1863C26.2232 15.1912 26.215 15.1936 26.2069 15.1928C26.1988 15.192 26.1914 15.1881 26.1862 15.1818C26.181 15.1756 26.1786 15.1674 26.1792 15.1592C26.1799 15.1511 26.1837 15.1436 26.1896 15.1381C26.2451 15.0869 26.2963 15.0342 26.3435 14.9795C26.5559 14.7371 26.7168 14.3938 26.6006 14.1192C26.481 13.8337 26.0922 13.8984 25.8471 14.0853C25.791 14.1243 25.7365 14.1684 25.6828 14.2172L25.4483 14.4315L25.5487 14.1291C25.768 13.5102 26.3362 13.138 26.8977 12.9296C26.9691 12.9046 27.0428 12.8819 27.1173 12.8665C27.1252 12.8649 27.1336 12.8662 27.1405 12.8705Z" fill="#522F19"/>
<path d="M11.3945 8.95413C11.4347 8.95205 11.4697 8.97897 11.4794 9.01672L11.482 9.0336L11.492 9.24891C11.5146 9.77418 11.5296 10.4502 11.5236 11.0941C11.5166 11.8271 11.5021 12.5631 11.4167 12.9505C11.3614 13.2012 11.3134 13.577 11.2926 14.0063C11.2721 14.4311 11.2589 14.872 11.232 15.1697C11.1526 16.0504 11.7321 17.4818 13.6931 18.8688C14.5433 19.4701 15.5885 19.9702 17.132 20.1208C18.7925 20.2828 20.4978 19.9081 21.9073 19.1373C23.3179 18.366 24.4393 17.2863 24.9704 16.2153L25.0074 16.1402L25.0819 16.1778C25.1817 16.2281 25.4907 16.3367 25.8767 16.3367C25.9823 16.3367 26.1663 16.2858 26.3912 16.1737C26.6133 16.063 26.8671 15.8969 27.111 15.6765C27.599 15.2357 28.043 14.5826 28.1238 13.7279C28.2508 12.3828 27.7213 11.9599 27.4666 11.8942L27.4429 11.889L27.4266 11.8842C27.3907 11.8697 27.3687 11.8312 27.3759 11.7913C27.3841 11.7458 27.4274 11.7155 27.4726 11.7238C27.8391 11.791 28.4245 12.3137 28.2894 13.744C28.2037 14.6511 27.7324 15.3403 27.222 15.8014C26.9667 16.032 26.7004 16.2067 26.4648 16.3241C26.2322 16.44 26.0207 16.5045 25.8767 16.5045C25.5306 16.5045 25.2398 16.423 25.0828 16.3606C24.5192 17.4468 23.3875 18.5188 21.9866 19.2848C20.5544 20.068 18.8321 20.5369 17.132 20.371C15.5506 20.2167 14.4622 19.6176 13.5976 19.0061C11.6117 17.6015 10.9794 16.1196 11.0664 15.1546C11.0928 14.8616 11.1057 14.4287 11.1265 13.9981C11.1471 13.5721 11.1756 13.1461 11.2345 12.8788C11.3155 12.5112 11.3504 11.8276 11.3573 11.0925C11.3642 10.3602 11.3434 9.58589 11.3157 9.04212C11.3134 8.99588 11.3487 8.95652 11.3945 8.95413Z" fill="#522F19"/>
<path d="M23.5672 4.22774C23.6276 4.28596 23.6898 4.34687 23.7493 4.40683C24.2941 4.94859 26.1247 6.32765 26.7344 7.73267C27.3441 9.1377 26.9488 9.85401 26.9205 10.6269C26.9174 10.7128 26.9128 10.7974 26.9065 10.8845C26.8857 10.8838 26.8649 10.8833 26.8441 10.8826C26.8435 10.7959 26.8416 10.7119 26.8384 10.6269C26.8102 9.86234 26.9619 9.03685 26.2637 7.73267C25.5656 6.4285 24.1892 5.04032 23.6892 4.46336C23.6346 4.39956 23.5776 4.33427 23.5223 4.27132C23.5373 4.2568 23.5522 4.24226 23.5672 4.22774Z" fill="#522F19"/>
<path d="M22.0777 5.66896C22.1066 5.7241 22.1389 5.78243 22.1704 5.83642C22.4633 6.33388 22.8132 6.79292 23.2056 7.20905C23.5988 7.62269 24.0415 7.99263 24.5509 8.25462C24.6075 8.28367 24.6647 8.31125 24.723 8.33737C24.7156 8.35692 24.7082 8.37648 24.7009 8.39603C24.639 8.37601 24.578 8.35409 24.5174 8.33016C23.9715 8.11425 23.423 7.82146 23.0193 7.39604C22.6155 6.96788 22.3454 6.40781 22.0974 5.87476C22.0709 5.81683 22.0439 5.7544 22.0209 5.69518C22.0398 5.68644 22.0588 5.6777 22.0777 5.66896Z" fill="#522F19"/>
<path d="M19.2994 3.45804C19.3384 3.45345 19.3883 3.4888 19.3969 3.52785C19.5597 6.57505 22.1475 8.54819 24.772 9.57613C25.1339 9.72913 25.5042 9.87434 25.8872 10.0149C25.8949 10.0178 25.9013 10.0236 25.9049 10.0312C25.9084 10.0387 25.9088 10.0473 25.906 10.0551C25.9033 10.0629 25.8975 10.0694 25.8901 10.0729C25.8827 10.0765 25.8741 10.077 25.8664 10.0743C25.4802 9.93994 24.9943 9.85551 24.6287 9.70776C22.0797 8.77527 19.5564 6.82816 19.25 3.94554C19.0985 4.55904 18.7516 4.99185 18.3333 5.4604C17.1293 6.80641 15.3723 7.47372 13.7551 8.09995C12.8034 8.46582 11.8694 8.87477 10.9205 9.26038L10.8446 9.28938L10.8414 9.20827C10.75 8.23762 10.8666 7.50975 11.3333 6.80693C11.5563 6.46808 11.9758 6.1559 12.2949 5.90885C12.3014 5.90381 12.3098 5.90158 12.318 5.90262C12.3261 5.90368 12.3336 5.90804 12.3386 5.91459C12.3436 5.92114 12.346 5.92945 12.3449 5.93769C12.3439 5.94594 12.3397 5.95351 12.3332 5.95866C12.0246 6.20633 11.7574 6.51002 11.5446 6.8448C11.1141 7.51592 10.9247 8.32357 10.9538 9.11881C11.8649 8.73424 12.7763 8.32636 13.7021 7.96231C15.3156 7.3246 16.9987 6.66496 18.1641 5.3596C18.6352 4.83158 18.9933 4.20392 19.2097 3.52686C19.2201 3.48989 19.2601 3.45854 19.2994 3.45804Z" fill="#522F19"/>
<path d="M18.0841 2.84194C18.0284 2.98271 17.9623 3.11686 17.8898 3.24978C17.2177 4.43472 16.332 5.50299 15.25 6.30198C14.1596 7.09921 12.8419 7.6114 11.5815 8.07864C11.4429 8.12997 11.1182 8.24793 10.9753 8.29661C10.9682 8.27693 10.9609 8.25731 10.9538 8.23762C11.0939 8.18255 11.4157 8.05857 11.5514 8.00163C12.7858 7.48374 13.9228 6.74608 15 5.95866C16.0687 5.16919 17.1091 4.34553 17.8186 3.20832C17.8953 3.08077 17.9659 2.95206 18.0266 2.81736C18.0458 2.82556 18.065 2.83373 18.0841 2.84194Z" fill="#522F19"/>
<path d="M11.8153 3.6965C13.7596 1.50431 16.8209 0.182892 19.8919 1.56604C22.3713 0.836694 24.9668 2.28476 26.6268 4.46401C28.2936 6.65233 29.0464 9.61564 27.7801 11.9308L27.7416 12.0014L27.6701 11.9654C27.4347 11.8467 27.0389 11.7508 26.6245 11.8523C26.2144 11.9527 25.7758 12.2488 25.4526 12.9331L25.3876 13.0708L25.3071 12.9416C25.0874 12.5891 24.9156 11.9939 24.8001 11.3876C24.6841 10.7787 24.6223 10.145 24.6287 9.70776C24.6293 9.66144 24.6672 9.62449 24.7132 9.62518C24.7591 9.62589 24.7957 9.66392 24.7951 9.71022C24.7889 10.1331 24.849 10.7551 24.9634 11.356C25.064 11.8839 25.2047 12.3852 25.3736 12.7194C25.7092 12.0919 26.1528 11.7952 26.5852 11.6893C27.0039 11.5867 27.4035 11.6655 27.6707 11.781C28.8412 9.55682 28.0189 6.92495 26.3905 4.78713C24.7451 2.62697 22.3043 1.01398 19.9098 1.73546L19.88 1.74448L19.8516 1.73153C16.858 0.36713 14.0022 1.78199 12.0833 3.94554C10.1603 6.11385 9.21013 8.99642 10.5534 11.0896C10.5784 11.1285 10.5673 11.1804 10.5287 11.2056C10.4901 11.2307 10.4386 11.2197 10.4136 11.1808C9.01111 8.9954 9.86929 5.89071 11.8153 3.6965Z" fill="#522F19"/>
<path d="M10.4984 11.1039C10.9695 11.07 11.435 11.3655 11.4816 11.8828C11.4858 11.9289 11.4521 11.9697 11.4064 11.9739C11.3606 11.9781 11.3202 11.944 11.316 11.8978C11.2794 11.4923 10.9129 11.2424 10.5103 11.2714C10.1168 11.2997 9.68644 11.6015 9.56708 12.3235C9.32549 13.785 10.3466 14.9291 11.1854 15.3383C11.2268 15.3585 11.2441 15.4087 11.2241 15.4504C11.2065 15.4869 11.1663 15.5047 11.1288 15.4951L11.1129 15.4894L11.0299 15.4468C10.1655 14.984 9.15335 13.806 9.40294 12.296C9.53322 11.5079 10.0183 11.1385 10.4984 11.1039Z" fill="#522F19"/>
<path d="M10.4836 12.2259C10.5111 12.2257 10.5389 12.228 10.5668 12.2327C10.823 12.2775 11.0249 12.499 11.1231 12.7355C11.2241 12.9752 11.2367 13.2456 11.1731 13.4882C11.1661 13.5154 11.1581 13.5417 11.1492 13.5682C11.1471 13.5403 11.1445 13.5132 11.1416 13.4858C11.1146 13.2408 11.0583 13.0124 10.9698 12.8012C10.8793 12.5923 10.7619 12.3894 10.556 12.2627C10.533 12.2491 10.5089 12.2367 10.4836 12.2259Z" fill="#522F19"/>
<path d="M14.3111 11.2191C14.9085 11.2191 15.3928 11.7825 15.3928 12.4775C15.3928 13.1725 14.9085 13.736 14.3111 13.736C13.7137 13.736 13.2294 13.1725 13.2294 12.4775C13.2294 11.7825 13.7137 11.2191 14.3111 11.2191ZM14.7271 11.7225C14.5433 11.7225 14.3943 11.8727 14.3943 12.0581C14.3943 12.2434 14.5433 12.3936 14.7271 12.3936C14.9109 12.3936 15.0599 12.2434 15.0599 12.0581C15.0599 11.8727 14.9109 11.7225 14.7271 11.7225Z" fill="#3C68A1"/>
<path d="M21.3004 11.5547C21.8978 11.5547 22.3821 12.1181 22.3821 12.8131C22.3821 13.5081 21.8978 14.0715 21.3004 14.0715C20.703 14.0715 20.2187 13.5081 20.2187 12.8131C20.2187 12.1181 20.703 11.5547 21.3004 11.5547ZM21.7165 12.0581C21.5327 12.0581 21.3836 12.2083 21.3836 12.3936C21.3836 12.579 21.5327 12.7292 21.7165 12.7292C21.9003 12.7292 22.0493 12.579 22.0493 12.3936C22.0493 12.2083 21.9003 12.0581 21.7165 12.0581Z" fill="#3C68A1"/>
<path d="M14.1447 10.548C15.0178 10.548 15.7256 11.3199 15.7256 12.2721C15.7256 12.3506 15.7202 12.4278 15.7109 12.5035C15.6097 11.5843 14.9036 10.7996 14.1447 10.7996C13.3152 10.7996 12.5637 11.4708 12.7218 12.7648C12.7218 12.8669 12.7284 12.9671 12.7408 13.0648C12.6279 12.8274 12.4805 12.4278 12.4805 12.142C12.4805 11.0344 13.2715 10.548 14.1447 10.548Z" fill="#522F19"/>
<path d="M21.7903 11.0224C22.6845 11.3498 23.1612 12.3041 22.8551 13.1541C22.8298 13.2241 22.7996 13.291 22.7657 13.3551C22.9576 12.4966 22.4867 11.5316 21.7094 11.247C20.86 10.936 19.8747 11.2533 19.6207 12.4675C19.5879 12.5587 19.5624 12.6506 19.5437 12.7424C19.5044 12.4882 19.4819 12.0763 19.5738 11.8212C19.8615 11.0224 20.8962 10.695 21.7903 11.0224Z" fill="#522F19"/>
<path d="M27.1163 15.7499C27.162 15.7451 27.2028 15.7786 27.2076 15.8246C27.2922 16.6378 27.1654 17.5587 26.9767 18.2917C26.8822 18.6585 26.7715 18.9811 26.6624 19.2219C26.6079 19.3421 26.5529 19.444 26.4992 19.5214C26.4481 19.5952 26.3894 19.6599 26.3237 19.6864C26.2621 19.7113 26.1884 19.7116 26.1134 19.6994C26.037 19.6868 25.9508 19.6598 25.8586 19.6207C25.674 19.5425 25.457 19.4128 25.2326 19.2399C24.8118 18.9157 24.3571 18.4337 24.0346 17.8375L23.9718 17.7167L23.9658 17.7008C23.9557 17.6631 23.9729 17.6222 24.0089 17.604C24.0448 17.5858 24.0877 17.5964 24.1116 17.6271L24.1207 17.6413L24.1808 17.7573C24.4905 18.3296 24.9284 18.7943 25.3337 19.1065C25.5498 19.2731 25.7546 19.3947 25.9231 19.466C26.0074 19.5017 26.0806 19.5241 26.1402 19.5339C26.2013 19.5439 26.2404 19.5395 26.262 19.5308C26.2795 19.5237 26.3144 19.4951 26.3627 19.4254C26.4085 19.3593 26.4588 19.2672 26.5109 19.1523C26.615 18.9226 26.7227 18.6097 26.8155 18.2496C26.9896 17.5736 27.1085 16.7406 27.0552 15.9908L27.0422 15.842L27.042 15.8251C27.0458 15.7863 27.0763 15.7542 27.1163 15.7499Z" fill="#522F19"/>
<path d="M26.8116 18.4639C26.8412 18.4285 26.8936 18.424 26.9288 18.4537C27.7447 19.1465 27.897 19.9826 27.8 20.6609C27.7517 20.9985 27.6418 21.2974 27.5218 21.5215C27.4618 21.6334 27.3986 21.7281 27.3382 21.8002C27.2798 21.8697 27.2169 21.9269 27.1558 21.9516C27.0959 21.9757 27.0099 21.9805 26.9164 21.9732C26.8197 21.9657 26.7039 21.9442 26.5778 21.9073C26.3256 21.8336 26.0269 21.6964 25.7522 21.4759C25.1983 21.0313 24.7494 20.2542 24.9627 19.0071L24.9673 18.9907C24.9813 18.9544 25.0193 18.9317 25.0589 18.9386C25.1042 18.9465 25.1345 18.9899 25.1267 19.0356L25.1094 19.1454C24.9505 20.2659 25.3647 20.9504 25.8559 21.3447C26.1115 21.5498 26.39 21.6779 26.6241 21.7463C26.7411 21.7805 26.8456 21.7994 26.9293 21.8059C27.0161 21.8127 27.0705 21.8053 27.0939 21.7959C27.116 21.787 27.1573 21.756 27.2111 21.6919C27.2627 21.6303 27.3197 21.5457 27.3754 21.4417C27.4868 21.2337 27.5901 20.9537 27.6354 20.637C27.7256 20.0065 27.5867 19.2317 26.8217 18.5822C26.7865 18.5523 26.782 18.4993 26.8116 18.4639Z" fill="#522F19"/>
<path d="M25.9688 21.5387C26.0144 21.5435 26.0475 21.5849 26.0427 21.6309C26.0163 21.8843 26.0442 22.2884 26.2147 22.6676C26.3786 23.0323 26.6735 23.3733 27.1818 23.5395L27.2315 23.5551L27.2473 23.5615C27.2814 23.5798 27.2992 23.6203 27.2879 23.6591C27.2765 23.6981 27.2397 23.7224 27.2011 23.7191L27.1847 23.716L27.1298 23.699C26.5707 23.5159 26.2431 23.1374 26.063 22.7368C25.8785 22.3261 25.8483 21.8912 25.8773 21.6132C25.8821 21.5672 25.9231 21.5338 25.9688 21.5387Z" fill="#522F19"/>
<path d="M27.5653 21.2272C27.5978 21.1944 27.6505 21.1944 27.683 21.2272C27.946 21.4924 28.4267 22.2557 28.289 23.2279C28.2825 23.2737 28.2403 23.3057 28.1949 23.2991C28.1494 23.2926 28.1177 23.2501 28.1242 23.2043C28.2527 22.2973 27.8015 21.584 27.5653 21.3458C27.5328 21.313 27.5328 21.2599 27.5653 21.2272Z" fill="#522F19"/>
<path d="M27.0553 23.5528C27.1006 23.5604 27.1313 23.6036 27.1237 23.6493C27.0971 23.8101 27.0953 24.0349 27.164 24.1984C27.1976 24.2781 27.2457 24.3381 27.3113 24.3729C27.3765 24.4075 27.4702 24.423 27.6061 24.3926C27.6509 24.3825 27.6954 24.4111 27.7053 24.4563C27.7153 24.5015 27.687 24.5464 27.6421 24.5564C27.4785 24.5931 27.3426 24.5792 27.2339 24.5215C27.1254 24.464 27.055 24.3687 27.0109 24.2639C26.9244 24.0583 26.9307 23.7966 26.9596 23.6218C26.9671 23.5761 27.01 23.5452 27.0553 23.5528ZM28.2169 23.1328L28.2655 23.1409C28.3837 23.1648 28.5314 23.2263 28.6356 23.3478C28.7604 23.4935 28.809 23.7091 28.7006 24.0006L28.6931 24.0159C28.6725 24.0489 28.631 24.0638 28.5933 24.0496C28.5503 24.0333 28.5286 23.985 28.5447 23.9416L28.5602 23.8967C28.6297 23.6779 28.5826 23.5426 28.5098 23.4576C28.4368 23.3724 28.3266 23.3246 28.2345 23.3057L28.1963 23.2993L28.1799 23.2955C28.1432 23.2831 28.119 23.2458 28.124 23.2056C28.129 23.1654 28.1615 23.1354 28.2 23.1323L28.2169 23.1328Z" fill="#522F19"/>
<path d="M28.1416 23.1636C28.1703 23.1275 28.2227 23.1216 28.2586 23.1505C28.2945 23.1795 28.3003 23.2323 28.2716 23.2685C28.1247 23.4536 27.9139 23.5655 27.7168 23.6313C27.5193 23.6972 27.3274 23.7194 27.2081 23.7194C27.1622 23.7194 27.1249 23.6819 27.1249 23.6355C27.1249 23.5892 27.1622 23.5517 27.2081 23.5517C27.3107 23.5517 27.4849 23.532 27.6646 23.472C27.8447 23.4119 28.0222 23.3141 28.1416 23.1636Z" fill="#522F19"/>
<path d="M28.5513 23.928C28.5749 23.8883 28.626 23.8754 28.6654 23.8992C28.7048 23.923 28.7176 23.9745 28.694 24.0142C28.5552 24.2474 28.3475 24.3618 28.1497 24.4283C28.0513 24.4614 27.9536 24.4831 27.8676 24.5015C27.7792 24.5204 27.7072 24.5351 27.6505 24.5541C27.6069 24.5688 27.5597 24.545 27.5452 24.501C27.5306 24.4571 27.5542 24.4095 27.5978 24.3949C27.6659 24.372 27.7499 24.3551 27.8331 24.3373C27.9187 24.319 28.0083 24.2988 28.0971 24.269C28.2737 24.2097 28.4404 24.1143 28.5513 23.928Z" fill="#522F19"/>
<path d="M22.0493 21.6221C22.0429 21.6662 22.0355 21.709 22.0267 21.7523C21.9487 22.1413 21.8235 22.5614 21.5397 22.8492C21.2567 23.1371 20.8225 23.2987 20.4321 23.3686C20.3893 23.3759 20.3447 23.3815 20.302 23.3839C20.3426 23.3705 20.384 23.3547 20.4234 23.338C20.7796 23.1828 21.089 22.9544 21.3539 22.6862C21.6182 22.4171 21.8336 22.0991 21.9966 21.7423C22.0148 21.7027 22.0322 21.6632 22.0493 21.6221Z" fill="#522F19"/>
<path d="M13.3958 23.6355C13.3826 23.6657 13.3702 23.6966 13.3586 23.7273C13.165 24.268 13.1346 24.8438 13.1392 25.407C13.1396 25.4259 13.1364 25.4446 13.1296 25.4639C13.1179 25.4961 13.0957 25.5306 13.063 25.5651C13.0257 25.5356 12.9999 25.5018 12.9858 25.4693C12.9776 25.4498 12.9732 25.4306 12.9728 25.4109C12.9668 24.8291 13.054 24.2272 13.3427 23.7194C13.3595 23.691 13.3774 23.6627 13.3958 23.6355Z" fill="#522F19"/>
<path d="M4.59523 19.3871C4.62099 19.3559 4.66434 19.3484 4.69842 19.3669L4.7124 19.3764L4.74555 19.4053C4.91262 19.556 5.09825 19.8032 5.13282 20.0892C5.15156 20.2443 5.12531 20.4089 5.03011 20.5706C4.93555 20.7312 4.77567 20.8846 4.53396 21.0238C4.49407 21.0468 4.44316 21.0327 4.42036 20.9925C4.39759 20.9523 4.41152 20.901 4.4514 20.878C4.67561 20.7488 4.81109 20.614 4.8871 20.4849C4.96246 20.3569 4.98209 20.2299 4.96754 20.1095C4.93784 19.8637 4.76383 19.638 4.60579 19.5052C4.57053 19.4755 4.56582 19.4226 4.59523 19.3871Z" fill="#522F19"/>
<path d="M22.8333 24.5644C22.8947 24.5615 22.9547 24.6102 22.9647 24.6738C22.975 24.7296 22.9853 24.7853 22.9954 24.8411C23.162 25.7539 23.3146 26.6689 23.4533 27.586C23.592 28.503 23.7169 29.4221 23.8278 30.3435C23.8401 30.4458 23.8523 30.5482 23.8643 30.6507C23.8437 30.6538 23.823 30.657 23.8024 30.6602C23.7836 30.5588 23.7649 30.4574 23.7464 30.356C23.5799 29.4432 23.4273 28.5283 23.2886 27.6113C23.1498 26.6942 23.025 25.7751 22.9141 24.8538C22.9073 24.7974 22.9006 24.741 22.8939 24.6846C22.8916 24.6552 22.8649 24.6286 22.8333 24.596V24.5644Z" fill="#522F19"/>
<path d="M14.5 26.5842C14.425 26.5924 14.3772 26.5915 14.3333 26.5842L14.8135 31.2804C14.8923 31.2863 14.9326 31.2783 15.0133 31.2823L14.5 26.5842Z" fill="#522F19"/>
</svg>
